<svg id="Layer_1" data-name="Layer 1" xmlns="http://www.w3.org/2000/svg" viewBox="0 0 1210.98 257.65"><defs><style>.cls-1{fill:#1e2e4e;}.cls-2{fill:#f4f4f4;}.cls-3,.cls-5{fill:#21789a;}.cls-4{font-size:30px;font-family:CenturyGothic-Bold, Century Gothic;font-weight:700;}.cls-5{font-size:201px;font-family:SamarkanNormal, Samarkan;}</style></defs><title>logo_horizontal</title><path class="cls-1" d="M484.08,416.57c4.62.83,8.33,3.4,14.74,9.14,7.68,6.89,11.86,12,19.1,19.24,3.92,3.95,7.74,8,11.79,11.82,13.54,12.74,26.28,26.29,39.48,39.39,6.31,6.25,12.42,12.71,18.9,18.77,3.36,3.14,6.46,6.51,9.76,9.69,6,5.82,7.45,13,6.28,21.13-.72,5.06-3.16,8.91-6.54,12.33-5,5.07-10.21,9.95-15.25,15-6.8,6.82-13.49,13.76-20.28,20.59-7.11,7.16-14.38,14.16-21.41,21.39-8.39,8.63-17.33,16.67-25.63,25.38-6.28,6.59-12.6,13.17-19.26,19.36-5.8,5.38-12.72,7.57-20.77,5.83-5.54-1.2-9.81-4-13.73-8-8.31-8.4-16.66-16.77-24.92-25.22-6.83-7-13.69-13.95-20.77-20.68-7.79-7.41-15.28-15.13-22.84-22.78-7-7.11-14.17-14.15-21.23-21.25-3.76-3.79-7.7-7.45-11.11-11.55-4.78-5.73-7.15-12.41-5.2-19.95a26.22,26.22,0,0,1,6.95-12q8.5-8.57,17-17.13c6.06-6.06,12.25-12,18.2-18.19,5.11-5.31,10.25-10.6,15.64-15.63,7.2-6.72,13.91-13.94,20.89-20.87,7.15-7.11,14.35-14.17,21.4-21.37,2.47-2.53,5-5,7.49-7.51a25.24,25.24,0,0,1,7.25-5.21,24.06,24.06,0,0,1,3.63-1.36A26.26,26.26,0,0,1,484.08,416.57ZM446.51,614.32c.13,2.87-.27,5.76.27,8.61a5.17,5.17,0,0,0,8.1,3.48,7.5,7.5,0,0,0,3.29-4.44c1.62-6.3,4-12.37,5.79-18.59,3-10.33,5.59-20.79,9.06-31,2.09-6.12,3.7-12.4,5.51-18.62,1.47-5.07,3-10.13,4.33-15.23.76-2.83,1.4-5.69,2.32-8.48a2.64,2.64,0,0,0-.41-2.79,2.49,2.49,0,0,0-2.75-.07c-4.11,1.91-8.64,2.25-12.89,3.61-1.64.52-2.44-.21-2.05-2,1.74-8.11,3.16-16.27,5.66-24.22,1.1-3.51,2.25-5.58,6.14-6.87,12.13-4,24.2-7.6,37.18-5.4a14.66,14.66,0,0,1,8.9,4.83c3,3.38,3.27,7.52,3.37,11.69,0,1.89.43,3.11,2.47,3.66a21.94,21.94,0,0,1,4.46,2.13c1.38.75,2.25.55,2.66-1.09a39.57,39.57,0,0,0,.5-17.78,30.05,30.05,0,0,0-8.55-15.38,43,43,0,0,0-23.44-12.51,65.31,65.31,0,0,0-20.65.1c-7.54,1.06-14.64,3.86-21.77,6.39-6.92,2.46-13.71,5.3-20.38,8.4a113,113,0,0,0-16.05,9.12c-1,.69-1.89,1.46-1.8,2.9.54,8.54,1,17.08,1.58,25.61.39,5.42,1.29,10.82,1.48,16.25.43,12.33,1.42,24.63,2,37,.07,1.57.68,1.84,2.16,1.59a38,38,0,0,0,7.9-2.57c3.57-1.42,4.48-.91,4.53,2.91C445.62,588.45,445.26,601.41,446.51,614.32Zm76.44-97c-2.11.3-4.16.57-6,2.19-2.53,2.25-4.7,4.43-5.56,8-.73,3,0,5.82.45,8.55s-1,4-2.23,5.73c-.38.54-1,.92-1.41,1.43-4.79,5.83-10.56,10.59-16.4,15.27-2.78,2.23-5.92,4.07-8.58,6.32-3.8,3.21-5.78,7.89-6.21,13,0,.64.39.72.91.54a9.09,9.09,0,0,0,1.9-.6c4.64-2.76,9.34-5.39,13.48-8.91,3.13-2.65,6.61-4.91,9.62-7.68,5.21-4.78,10.36-9.65,15.08-14.93a4.17,4.17,0,0,1,2.93-1.37,34.89,34.89,0,0,0,10-2.21c4.72-1.9,8.63-9.16,7.21-14a16.87,16.87,0,0,0-3.77-6.83A13.83,13.83,0,0,0,523,517.31Z" transform="translate(-354.51 -416.22)"/><path class="cls-2" d="M446.51,614.32c-1.25-12.91-.89-25.87-1.09-38.81-.05-3.82-1-4.33-4.53-2.91a38,38,0,0,1-7.9,2.57c-1.48.25-2.09,0-2.16-1.59-.57-12.33-1.56-24.63-2-37-.19-5.43-1.09-10.83-1.48-16.25-.61-8.53-1-17.07-1.58-25.61-.09-1.44.79-2.21,1.8-2.9a113,113,0,0,1,16.05-9.12c6.67-3.1,13.46-5.94,20.38-8.4,7.13-2.53,14.23-5.33,21.77-6.39a65.31,65.31,0,0,1,20.65-.1,43,43,0,0,1,23.44,12.51,30.05,30.05,0,0,1,8.55,15.38,39.57,39.57,0,0,1-.5,17.78c-.41,1.64-1.28,1.84-2.66,1.09a21.94,21.94,0,0,0-4.46-2.13c-2-.55-2.42-1.77-2.47-3.66-.1-4.17-.38-8.31-3.37-11.69a14.66,14.66,0,0,0-8.9-4.83c-13-2.2-25,1.37-37.18,5.4-3.89,1.29-5,3.36-6.14,6.87-2.5,7.95-3.92,16.11-5.66,24.22-.39,1.8.41,2.53,2.05,2,4.25-1.36,8.78-1.7,12.89-3.61a2.49,2.49,0,0,1,2.75.07,2.64,2.64,0,0,1,.41,2.79c-.92,2.79-1.56,5.65-2.32,8.48-1.36,5.1-2.86,10.16-4.33,15.23-1.81,6.22-3.42,12.5-5.51,18.62-3.47,10.21-6,20.67-9.06,31-1.83,6.22-4.17,12.29-5.79,18.59a7.5,7.5,0,0,1-3.29,4.44,5.17,5.17,0,0,1-8.1-3.48C446.24,620.08,446.64,617.19,446.51,614.32Zm10.08-19.25c1.87-6.67,3.63-12.89,5.35-19.12q2.9-10.46,5.75-20.92c1-3.78,2.21-7.53,3.05-11.36.62-2.8-.15-3.36-2.79-2.47-3.13,1-6.22,2.23-9.4,3.1-2.29.62-2.64.18-2.52-2.21.26-4.92,1.61-9.65,2.44-14.48,1.8-10.49,3.78-21,5.74-31.42.27-1.43.46-3,2.26-3.6,6.1-2,12.12-4.33,18.26-6.24,9.59-3,19.36-4.85,29.48-3.69a4.65,4.65,0,0,0,2.56-.43c-.81-1.45-2.23-1.83-3.34-2.49a30.63,30.63,0,0,0-17.59-4.35c-8.46.42-16.18,3.73-24.15,6-7.26,2.06-14,5.67-20.94,8.7-3.68,1.61-7.28,3.48-10.92,5.22-2.3,1.1-3.15,2.44-3.16,4.82,0,6.66.42,13.3.77,20,.69,13.51,1.24,27,1.8,40.54.08,1.89.9,2.21,2.47,1.65,3.16-1.14,6.34-2.25,9.49-3.42,2.45-.9,3.15-.55,3.32,2.1.24,4,.45,8,.44,12,0,6.51.35,13,.64,19.52A4.86,4.86,0,0,0,456.59,595.07Z" transform="translate(-354.51 -416.22)"/><path class="cls-3" d="M523,517.31a13.83,13.83,0,0,1,11.43,4.48,16.87,16.87,0,0,1,3.77,6.83c1.42,4.85-2.49,12.11-7.21,14a34.89,34.89,0,0,1-10,2.21,4.17,4.17,0,0,0-2.93,1.37c-4.72,5.28-9.87,10.15-15.08,14.93-3,2.77-6.49,5-9.62,7.68-4.14,3.52-8.84,6.15-13.48,8.91a9.09,9.09,0,0,1-1.9.6c-.52.18-1,.1-.91-.54.43-5.14,2.41-9.82,6.21-13,2.66-2.25,5.8-4.09,8.58-6.32,5.84-4.68,11.61-9.44,16.4-15.27.43-.51,1-.89,1.41-1.43,1.21-1.7,2.69-3,2.23-5.73s-1.18-5.55-.45-8.55c.86-3.53,3-5.71,5.56-8C518.79,517.88,520.84,517.61,523,517.31Zm.7,18.51c2.83,0,5.54-2.47,5.54-5.11s-2.12-4.5-5.23-4.78-4.51,2.62-4.92,5.6C518.8,533.29,521.7,535.82,523.65,535.82Z" transform="translate(-354.51 -416.22)"/><path class="cls-3" d="M456.59,595.07a4.86,4.86,0,0,1-1-2.59c-.29-6.51-.66-13-.64-19.52,0-4-.2-8-.44-12-.17-2.65-.87-3-3.32-2.1-3.15,1.17-6.33,2.28-9.49,3.42-1.57.56-2.39.24-2.47-1.65-.56-13.51-1.11-27-1.8-40.54-.35-6.65-.79-13.29-.77-20,0-2.38.86-3.72,3.16-4.82,3.64-1.74,7.24-3.61,10.92-5.22,6.93-3,13.68-6.64,20.94-8.7,8-2.26,15.69-5.57,24.15-6a30.63,30.63,0,0,1,17.59,4.35c1.11.66,2.53,1,3.34,2.49a4.65,4.65,0,0,1-2.56.43c-10.12-1.16-19.89.69-29.48,3.69-6.14,1.91-12.16,4.19-18.26,6.24-1.8.6-2,2.17-2.26,3.6-2,10.46-3.94,20.93-5.74,31.42-.83,4.83-2.18,9.56-2.44,14.48-.12,2.39.23,2.83,2.52,2.21,3.18-.87,6.27-2,9.4-3.1,2.64-.89,3.41-.33,2.79,2.47-.84,3.83-2,7.58-3.05,11.36q-2.87,10.47-5.75,20.92C460.22,582.18,458.46,588.4,456.59,595.07Z" transform="translate(-354.51 -416.22)"/><path class="cls-1" d="M523.65,535.82c-1.95,0-4.85-2.53-4.61-4.29.41-3,1.83-5.87,4.92-5.6s5.24,2.1,5.23,4.78S526.48,535.83,523.65,535.82Z" transform="translate(-354.51 -416.22)"/><text class="cls-4" transform="translate(310.68 248.45)">DEPARTMENT OF ELECTRICAL ENGINEERING, IIT(BHU) VARANASI</text><text class="cls-5" transform="translate(297.62 159.67) scale(0.96 1)">prastuti </text><text x="-354.51" y="-416.22"/><text class="cls-5" transform="translate(1024.8 160.98) scale(0.96 1)">22</text><path class="cls-3" d="M1380.87,433.79c-3.74,17-11.16,39-16.06,48.45l-10.69,1.67c3.66-11.93,7.92-33,9.42-47.45Z" transform="translate(-354.51 -416.22)"/></svg>